<?xml version="1.0" encoding="utf-8"?>
<!-- Generator: Adobe Illustrator 22.1.0, SVG Export Plug-In . SVG Version: 6.00 Build 0)  -->
<svg version="1.1" id="レイヤー_1" xmlns="http://www.w3.org/2000/svg" xmlns:xlink="http://www.w3.org/1999/xlink" x="0px"
	 y="0px" viewBox="0 0 92.4 100" style="enable-background:new 0 0 92.4 100;" xml:space="preserve">
<style type="text/css">
	.st0{fill:url(#SVGID_1_);}
</style>
<title>名称未設定-1</title>
<radialGradient id="SVGID_1_" cx="46.1935" cy="50.0001" r="48.1342" gradientUnits="userSpaceOnUse">
	<stop  offset="0" style="stop-color:#B4B4B4"/>
	<stop  offset="1" style="stop-color:#505050"/>
</radialGradient>
<path class="st0" d="M82.8,4.1c-9.6-6.7-25.3-5.4-33.1,6c-3.4,4.9-3.6,10.4-1.5,15.8c2.5,6.7,11.8,9.9,17.2,4.2
	c3.6-3.8,3.2-10-2-12.2c-0.8-0.4-1.7-0.7-2.7-0.7c-0.5,0-0.8,0.4-0.8,0.9c0,0.1,0,0.2,0.1,0.4c0.3,0.6,2.8,0.7,4.1,3.4
	c0.8,1.8-0.7,5.2-2.6,6.1c-2.2,1-4.7,0.8-6.7-0.6c-3.4-2.8-3-7.1-2-9.6c3.2-7.3,13.4-10.4,22.2-6.9c3.7,1.5,7,5.5,8.2,9
	c2.8,7.9-0.4,16.4-6,23.9c-2.7,3.6-5.7,7-8.9,10.2c1.9-1.9-12.9,10.7-19,24.7c-1.4,3.4-2.5,7-3.3,10.6c-0.8-3.6-1.9-7.2-3.3-10.6
	c-6.1-14-20.9-26.6-18.9-24.7c-3.3-3.1-6.2-6.5-8.9-10.2c-5.6-7.5-8.7-15.9-6-23.9c1.2-3.5,4.5-7.5,8.2-9c8.8-3.5,19-0.4,22.2,6.9
	c1.1,2.5,1.4,6.8-2,9.6c-2,1.3-4.5,1.5-6.7,0.6c-1.9-0.9-3.4-4.4-2.6-6.1c1.3-2.7,3.8-2.8,4.1-3.4c0.2-0.4,0.1-0.9-0.3-1.1
	c-0.1-0.1-0.2-0.1-0.3-0.1c-0.9,0.1-1.8,0.3-2.6,0.7c-5.3,2.2-5.6,8.4-2,12.2c5.4,5.7,14.7,2.5,17.2-4.2C46.3,20.4,46,15,42.7,10
	C34.9-1.3,19.1-2.7,9.5,4.1C-1.9,12.1-1.6,27,2.8,37.6c2.2,5.1,5.3,9.7,9.3,13.5c3.9,3.9,8.2,7.4,11.8,10.8
	c4.4,4.1,8.4,8.5,12.1,13.2c3.1,4.3,3.8,6.6,5.3,10.2c1.3,3.2,2.2,6.5,3,9.8c0.3,1.3,0.6,3.2,0.8,3.9c0.1,0.6,0.5,1,1.1,1h0
	c0.6,0,1-0.5,1.1-1c0.2-0.7,0.6-2.7,0.9-3.9c0.7-3.3,1.7-6.6,2.9-9.8c1.5-3.6,2.2-5.9,5.3-10.2c3.7-4.7,7.8-9.1,12.1-13.2
	c3.5-3.3,7.9-6.9,11.8-10.8c4-3.8,7.1-8.4,9.3-13.5C93.9,27,94.3,12.1,82.8,4.1"/>
</svg>
